<?xml version="1.0" standalone="no"?>
<!DOCTYPE svg PUBLIC "-//W3C//DTD SVG 20010904//EN"
 "http://www.w3.org/TR/2001/REC-SVG-20010904/DTD/svg10.dtd">
<svg version="1.0" xmlns="http://www.w3.org/2000/svg"
 width="300.000000pt" height="300.000000pt" viewBox="0 0 300.000000 300.000000"
 preserveAspectRatio="xMidYMid meet">
<metadata>
Created by potrace 1.11, written by Peter Selinger 2001-2013
</metadata>
<g transform="translate(0.000000,300.000000) scale(0.100000,-0.100000)"
fill="#000000" stroke="none">
<path d="M1151 2299 c-192 -192 -349 -350 -348 -350 1 -1 88 -2 193 -3 l191
-2 18 31 c9 16 33 59 52 94 23 44 69 99 139 169 l104 103 104 -103 c96 -95
129 -141 194 -268 l13 -25 189 0 c106 0 189 4 188 9 -2 5 -157 163 -345 351
l-342 342 -350 -348z"/>
<path d="M346 1499 l-350 -349 199 2 c188 3 200 4 210 23 65 127 101 178 194
269 55 55 102 98 105 95 177 -170 210 -209 258 -296 l50 -93 196 0 197 0 -350
350 c-192 193 -352 350 -355 350 -3 -1 -162 -158 -354 -351z"/>
<path d="M1945 1500 l-350 -350 197 0 196 0 51 94 c42 78 69 112 152 193 55
54 103 99 107 101 4 1 52 -43 107 -98 77 -77 111 -121 151 -192 l51 -93 199
-3 198 -2 -351 350 c-193 192 -353 350 -355 350 -1 0 -161 -157 -353 -350z"/>
<path d="M1148 705 c-192 -190 -348 -347 -348 -349 0 -3 87 -5 194 -5 l195 0
51 97 c44 84 66 111 157 198 l105 102 114 -114 c63 -62 114 -118 114 -124 0
-5 19 -44 42 -84 l41 -75 194 0 c106 0 193 2 193 4 0 6 -689 689 -698 692 -4
2 -163 -152 -354 -342z"/>
</g>
</svg>
