<svg xmlns="http://www.w3.org/2000/svg" viewBox="0 0 256 256"><defs><style>.a{fill:#46001d;}.b{fill:#fff;}</style></defs><path class="a" d="M55.47,111a29.8,29.8,0,1,0-29.8-29.8A29.84,29.84,0,0,0,55.47,111ZM35.9,81.15a19.57,19.57,0,1,1,19.57,19.57A19.59,19.59,0,0,1,35.9,81.15Z"/><polygon class="a" points="22.12 133.1 33.68 131.46 46.87 130.3 49.41 133.07 62.52 132.92 64.92 130.3 78.19 131.1 89.01 132.49 85.05 195 94.74 195 98.75 133.64 100.9 122.73 78.19 119.56 63.65 123.7 59.36 127.03 52.48 127.03 48.66 124.01 33.6 119.56 10.12 123.22 12.21 134.14 15.76 195 25.67 195 22.12 133.1"/><path class="b" d="M76.26,112.91l-4.44,4.43L59.37,127s-2.33-2.93-3.46-2.92S52.49,127,52.49,127l-12.27-9.7-4.13-4.09c-.53,0-.9.86-1.1,1.58l-6,16.38a1.2,1.2,0,0,0,.3.95L42,140.32a2.91,2.91,0,0,0,1.47.57,1.56,1.56,0,0,0,1.3-.9l2.13-9.68L53.94,138l-6.33,41a1.7,1.7,0,0,0,.38,1.83l6.72,10.25a1.7,1.7,0,0,0,2.39,0l7.49-10.25A1.68,1.68,0,0,0,65,179l-7.08-41,7.05-7.69,2.94,9a1.72,1.72,0,0,0,1.31.89h.19a1.71,1.71,0,0,0,1.28-.58l10.23-8.06a1.23,1.23,0,0,0,.1-1.08l-3.62-16C76.94,112.91,76.26,112.91,76.26,112.91Z"/><path class="a" d="M34.08,68.08S55,46,75,65L32,77C32,73,34.08,68.08,34.08,68.08Z"/><rect class="a" x="199.09" y="144.79" width="9.02" height="46.6"/><path class="a" d="M203.6,51.42a29.77,29.77,0,0,0-26.09,44.16l-4.78,14.78h24.65a29.69,29.69,0,0,0,12.45,0h25.9l-5.36-16.12a29.51,29.51,0,0,0,3-13A29.84,29.84,0,0,0,203.6,51.42Zm0,49.3a19.59,19.59,0,0,1-19.45-17.5L215.1,65.35a19.55,19.55,0,0,1-11.5,35.37Z"/><path class="a" d="M177.81,133.1h8.9l16.72,17.78,17.09-17.8,7.79,0s.09,35.14,3.88,53.45c.33,1.56,1,4.67,1.8,8.52h11.56c-4.68-20.16-6.87-60.86-6.87-60.86l2.11-10.92-13.78-1-8.68,1,1.38,3.86-5-.37-11.08,13-11.07-13-5,.37,1.41-3.86-8.71-1-14.77,1,2.09,10.93s-2.23,40.69-7,60.86h11.28C176.54,173.12,177.81,133.1,177.81,133.1Z"/><path class="b" d="M229.44,123.33,218.05,118c-.66-.3-1.3-.65-1.93-1l3.59,10.07-5-.37-11.08,13-11.07-13-5,.37L191.17,117l-2.28,1.1-11.12,5.22,24.86,27.13a1.34,1.34,0,0,0,2,0Z"/><path class="b" d="M66.25,40.52a106.66,106.66,0,0,1,123.57.68l11-6.35a118.5,118.5,0,0,0-145.6-.7Z"/><path class="b" d="M192.22,213a106.64,106.64,0,0,1-128.41.69L52.9,220a118.48,118.48,0,0,0,150.2-.71Z"/></svg>