<svg xmlns="http://www.w3.org/2000/svg" viewBox="0 0 256 256"><defs><style>.a{fill:#46001d;}.b{fill:#fff;}</style></defs><polygon class="a" points="147.72 71.25 130.5 71.22 110.58 71.22 100.92 71.22 102.1 77.46 102.1 77.57 102.09 117.86 112.45 117.86 112.45 81.2 145.85 81.2 145.85 117.86 156.21 117.86 156.2 77.57 156.2 77.46 157.38 71.22 147.72 71.22 147.72 71.25"/><path class="a" d="M126.67,65.39a22.38,22.38,0,0,0,22.87-13,23.1,23.1,0,0,0,2.19-9.8,22.58,22.58,0,1,0-45.16,0,23.1,23.1,0,0,0,2.19,9.8A22.63,22.63,0,0,0,126.67,65.39Zm2.48-36.73a13.89,13.89,0,1,1-13.9,13.91A13.9,13.9,0,0,1,129.15,28.66Z"/><polygon class="a" points="89.36 196.97 79.7 196.97 79.7 197 62.48 196.97 42.56 196.97 32.91 196.97 34.08 203.21 34.08 203.32 34.07 236.4 44.43 236.4 44.43 206.94 77.83 206.94 77.83 236.4 88.19 236.4 88.18 203.32 88.18 203.21 89.36 196.97"/><path class="a" d="M58.65,194.74a22.38,22.38,0,0,0,22.87-13,23.1,23.1,0,0,0,2.19-9.8,22.58,22.58,0,1,0-45.16,0,23.1,23.1,0,0,0,2.19,9.8A22.62,22.62,0,0,0,58.65,194.74ZM61.13,158a13.89,13.89,0,1,1-13.9,13.9A13.9,13.9,0,0,1,61.13,158Z"/><polygon class="a" points="157.09 196.97 147.44 196.97 147.44 197 130.22 196.97 110.3 196.97 100.64 196.97 101.82 203.21 101.82 203.32 101.81 236.4 112.17 236.4 112.17 206.94 145.57 206.94 145.57 236.4 155.93 236.4 155.92 203.32 155.92 203.21 157.09 196.97"/><path class="a" d="M115,189.93a22.13,22.13,0,0,0,11.43,4.81,20.58,20.58,0,0,0,5,0,22.13,22.13,0,0,0,11.43-4.81,23,23,0,0,0,6.48-8.21c.27-.57.5-1.17.72-1.77a22.58,22.58,0,1,0-42.22,0c.22.6.45,1.2.72,1.77A23,23,0,0,0,115,189.93Zm0-18a13.9,13.9,0,0,1,27.8,0,13.7,13.7,0,0,1-2.63,8,15,15,0,0,1-1,1.35,13.86,13.86,0,0,1-20.48,0,15,15,0,0,1-1-1.35A13.7,13.7,0,0,1,115,171.92Z"/><polygon class="a" points="221.92 203.21 223.09 196.97 213.44 196.97 213.44 197 196.22 196.97 176.3 196.97 166.64 196.97 167.82 203.21 167.82 203.32 167.81 236.4 178.17 236.4 178.17 206.94 211.57 206.94 211.57 236.4 221.93 236.4 221.92 203.32 221.92 203.21"/><path class="a" d="M192.39,194.74a22.38,22.38,0,0,0,22.87-13,23.1,23.1,0,0,0,2.19-9.8,22.58,22.58,0,1,0-45.16,0,23.1,23.1,0,0,0,2.19,9.8A22.61,22.61,0,0,0,192.39,194.74ZM194.87,158a13.89,13.89,0,1,1-13.9,13.9A13.9,13.9,0,0,1,194.87,158Z"/><path class="b" d="M100.59,178.35V119.89h54.46v56.82h0v11.1H167l-2.5-9.21V110.43H91.05v68.43l-2,8.95h11.54Z"/></svg>