<svg xmlns="http://www.w3.org/2000/svg" viewBox="0 0 256 256"><defs><style>.a{fill:#46001d;}.b{fill:#fff;}</style></defs><path class="a" d="M129.23,76.13H102.34l1.07,5.67v47.64a37.91,37.91,0,0,0,.31,5.11,20.73,20.73,0,0,0,3.4,8.84l6.71,10h0l.06,57.93L112.68,217l11.76,0-1.21-5.8h0V151.44l-4.88-7.08a39,39,0,0,1-4-5.89c-1.64-4.29-1.54-5.3-1.57-6.44V85.62h30.36V132c0,1.14.07,2.15-1.57,6.44a31.8,31.8,0,0,1-3.62,5.89l-5.25,7.12v59.84L131.52,217h11.8l-1.16-5.69.06-57.93h0l6.71-10a20.73,20.73,0,0,0,3.4-8.84,37.91,37.91,0,0,0,.31-5.11V81.8l1.07-5.67h-8.78v0Z"/><path class="a" d="M126.77,35a17.75,17.75,0,1,0,17.45,17.74A17.62,17.62,0,0,0,126.77,35Zm0,25.63a7.89,7.89,0,1,1,7.89-7.89A7.88,7.88,0,0,1,126.77,60.63Z"/><path class="b" d="M128,19.87a108.13,108.13,0,0,1,76.46,184.59A108.13,108.13,0,0,1,51.54,51.54,107.45,107.45,0,0,1,128,19.87m0-11A119.13,119.13,0,1,0,247.13,128,119.13,119.13,0,0,0,128,8.87Z"/></svg>