<svg xmlns="http://www.w3.org/2000/svg" viewBox="0 0 256 256"><defs><style>.a{fill:#46001d;}.b{fill:#fff;}</style></defs><path class="a" d="M40.16,219.68c1-6.84,4.51-14.25,8-18a17.42,17.42,0,0,1,8.75-5.26c4-1.14,8.64-.94,14.64,0h0l24,5.14v.67l0,7.78v.67L68,205.54h-.11C63.06,205,55.52,207,53.48,213l-.26.77L126.27,229a9.4,9.4,0,0,0,5-.32l57.55-20h0l0,8.44h0l-57.61,20.62a9.38,9.38,0,0,1-5.06.35Z"/><path class="b" d="M202.71,213.14V162.93H222V152l-8.49,2.3H194v67.67h19.76l8.25,1.84V213.14C221.15,213.22,202.71,213.14,202.71,213.14Z"/><path class="b" d="M106.68,75A28.64,28.64,0,1,0,78.05,46.36,28.63,28.63,0,0,0,106.68,75Zm0-48.06A19.43,19.43,0,1,1,87.25,46.36,19.42,19.42,0,0,1,106.68,26.93Z"/><path class="a" d="M162.38,98.31a37,37,0,0,1-.27-4.93V88.07l1.22-6.31H51.21l1.21,6.31v5.38s-.08,4-.27,4.87L35.36,174.89h0L34,180.94l6.94.26,36.71,8.46,2.14.49,6.34,2.79,2.29-10,.51-2.22A52.26,52.26,0,0,1,105,160c.82-.64,1.66-1.25,2.52-1.84l5.33-2.47,14.27-2.59-8.67-8.68-10.74,4a60.71,60.71,0,0,0-26.48,29.43c-.42,1-.82,2-1.19,3.06L45.55,173,61.69,93.44V90.51l91.17,0v3l1.82,12H164Z"/><path class="b" d="M144.89,113a18.8,18.8,0,1,0,18.81,18.81A18.81,18.81,0,0,0,144.89,113ZM147.68,142a10.27,10.27,0,0,1-2.79.38,10.66,10.66,0,1,1,2.79-.38Z"/><path class="a" d="M190,163.42l0,8.42-30.93.09s-6.73-.16-6.71,8v5.46l-43.56-.06s-3.39-.28-3.49,2.4-.12,5.51-.12,5.51.27,3.37,3.34,3.36l33.72-.09s4.51-.64,4.53,4.67c0,0,.53,4.52-4.51,4.54l-33.51.09s-9,.83-11.23-8.83-.14-20.73,11.14-20.68c9.74,0,35.81-.1,35.81-.1s1.4-12.7,14.74-12.74Z"/></svg>